/* XPM */
static char *d7d541ccd5d04d509b689896462a2524IcgmquTOwdy0M8O2[] = {
/* columns rows colors chars-per-pixel */
"60 60 136 2 ",
"   c #000000",
".  c #090604",
"X  c #0E0A07",
"o  c #120D09",
"O  c #1A0F0B",
"+  c #16110C",
"@  c #1F130D",
"#  c #23150E",
"$  c #29160F",
"%  c #261A12",
"&  c #2C1B13",
"*  c #2F2218",
"=  c #322217",
"-  c #34251A",
";  c #3D2419",
":  c #3B2A1E",
">  c #402B1E",
",  c #4B3525",
"<  c #513626",
"1  c #5F3123",
"2  c #503B29",
"3  c #593E2C",
"4  c #653626",
"5  c #683624",
"6  c #653927",
"7  c #6A3826",
"8  c #653B2A",
"9  c #6B3D2B",
"0  c #723F2B",
"q  c #6E412E",
"w  c #73422E",
"e  c #79462E",
"r  c #78482F",
"t  c #6E4230",
"y  c #744631",
"u  c #794731",
"i  c #754933",
"p  c #7C4B34",
"a  c #7D4F38",
"s  c #7E5137",
"d  c #7C5038",
"f  c #68396D",
"g  c #814E35",
"h  c #814F38",
"j  c #845137",
"k  c #84543B",
"l  c #89563C",
"z  c #87583E",
"x  c #8C5B3E",
"c  c #915D3F",
"v  c #97613E",
"b  c #8C5C41",
"n  c #915E42",
"m  c #8E6046",
"M  c #8D634A",
"N  c #936244",
"B  c #9A6645",
"V  c #9D6946",
"C  c #946549",
"Z  c #996749",
"A  c #926B4B",
"S  c #9D6C4B",
"D  c #A26B46",
"F  c #A26D4A",
"G  c #A5714D",
"H  c #AA744D",
"J  c #AF784F",
"K  c #B3794F",
"L  c #A47250",
"P  c #A77451",
"I  c #A47453",
"U  c #A47554",
"Y  c #A67755",
"T  c #AA7551",
"R  c #A77856",
"E  c #AD7852",
"W  c #AD7953",
"Q  c #AE7852",
"!  c #AF7A53",
"~  c #A47758",
"^  c #AD7B5A",
"/  c #AE7D5A",
"(  c #AC7E5D",
")  c #B37B51",
"_  c #B07A53",
"`  c #B67D51",
"'  c #B57E54",
"]  c #B07E59",
"[  c #B17F5A",
"{  c #FB7777",
"}  c #FB7877",
"|  c #FD7878",
" . c #B78055",
".. c #B98257",
"X. c #B5835B",
"o. c #B1815D",
"O. c #B2825E",
"+. c #B7845C",
"@. c #B88459",
"#. c #B8845A",
"$. c #BC865B",
"%. c #B9845C",
"&. c #BB865C",
"*. c #BB875D",
"=. c #BF885B",
"-. c #BA885E",
";. c #BE885D",
":. c #BD8B5F",
">. c #B68660",
",. c #B98760",
"<. c #BD8B63",
"1. c #BF8D63",
"2. c #BE906A",
"3. c #C0895C",
"4. c #C18B5F",
"5. c #C18D62",
"6. c #C08D63",
"7. c #C08F64",
"8. c #C19067",
"9. c #C49065",
"0. c #C89367",
"q. c #C5946B",
"w. c #C7976C",
"e. c #CA976B",
"r. c #C8976D",
"t. c #C99A6E",
"y. c #CE9A6C",
"u. c #CF9B6D",
"i. c #AF4D85",
"p. c #B24F87",
"a. c #B6508A",
"s. c #BA548D",
"d. c #C0558D",
"f. c #C35690",
"g. c #C35891",
"h. c #CC5E98",
/* pixels */
"u S ) b D p z o.d N 5.) u M #.K T w V F q D Q b V p z o.p N 1.) u m o.K H q V V q F Q z V p k o.p N 5.` u m #.K T y Z D ",
"w w F Q y 9 / u.I 7 j N k G ` N s 9 w p 9 w F ) i q / u.L 5 j N k G ..N s q w p 9 w F ) i q / u.I 7 k N k G ` N s 9 i u ",
"I y 8 b p B ' v Q Z q y u G F 9 t F N B R i 9 x p Z ` N ) B y q w G G 8 q G m C U y 9 b p B ` N Q Z y w u F F 8 t I N N ",
"w.^ w q p Q G b G ;.B u p q 9 b 2.9.o.+.w./ i q p Q G b G 4.S u p w 9 m 9.1.-.#.w./ w q p Q G b G ;.B u u q 9 n 1.1.&.#.",
"H ;.G e y Z F +.$.V w l 2.( 0 k -.Q V G D 4.L w w B S o.#.V 0 l 2.o.w z &.K B G G ;.L w w B S #.#.B w l 2.( q z #.Q V F ",
"F ..n b C 8 p H b i N ' &.A : .                       & d y C G =                       . # 8 G x y N K -.1.V 9 y C Q Q ",
"D p p o.r.N 8 8 q S 9.H F @ o                         . @ F 9.# .                         X O 9 w G 2.H F ) #.j y U ` G ",
"b q o.Q K 9.I y j ..G S )     | | | | | | | | | | | |     #.G     | | | | | | | | | | | {   . q k #.G S ) N j 9 k ` Q Q ",
"w R 4.F Z N B c j # - .       | | | | | | | | | | | |     g b     | | | | | | | | | | | |         o 8 a i w u S b 9 k N ",
"u B ) ) a 4 a w x - ; .     | | | | | | | | | | | | |     ~ b     | | | | | | | | | | | | |       o > i b j B 7.R S b y ",
"b i c i w ( q.( z . o | | | | | | | | | | | | | | | |     ] &.    | | | | | | | | | | | | | | | |   X o.q.F a V ) r.I 0 ",
"w.S p 5 S 2 , X       | | | | | | | | | | | | | | | |             | | | | | | | | | | | | | | | |       . $ 8 q b C 9 G ",
"G ;.[ k b - = .     a.a.a.a.a.a.a.a.| | | | | | | | | |         | | | | a.a.a.a.a.s.a.a.| | | | | |     X < : o.u 4 N 5.",
"S H ;.B 4 . . | | | a.a.a.a.a.a.a.a.| | | | | | | | | | f f f f | | | | a.a.a.a.a.a.a.a.| | | | | | | | } + . 9.[ u g G ",
"a z n w e     | | | a.a.a.a.a.a.a.a.| | | | | | | | | | f f f f | | | | a.a.a.a.a.a.a.a.| | | | | | | | |     D Q ' k u ",
"q & @ .       | | | a.a.a.a.a.a.a.a.| | | | | | | | | | f f f f | | | | a.a.a.a.a.a.a.a.| | | | | | | | |       . # S p ",
">., = .     | | | | | | | | | | | | | | | | a.a.a.a.| | f f f f a.a.a.a.| | | | | | | | | | | | a.a.a.a.| |     X ; ; j ",
"Z X . | | | | | | | | | | | | | | | | | | | a.a.a.a.| | f f f f a.a.a.a.| | | | | | | | | | | | a.a.a.a.| | | | { o o z ",
"y     | | | | | | | | | | | | | | | | | | | a.a.a.a.| | f f f f a.a.a.a.| | | | | | | | | | | | a.a.a.a.| | | | |     F ",
"i     | | | | | | | | | | | | | | | | | | | a.a.a.a.| | f f f f a.s.a.a.| | | | | | | | | | | | a.a.a.a.| | | | |     ) ",
"i     | | | | | | | a.a.a.a.a.a.a.a.| | | | a.a.a.a.| | f f f f a.a.a.a.a.a.a.a.a.a.a.a.| | | | a.a.a.a.| | | | |     F ",
"0     | | | | | | | a.a.a.a.a.a.a.a.| | | | a.a.a.a.| | f f f f a.a.a.a.a.a.a.a.a.a.a.a.| | | | a.a.a.a.| | | | |     u ",
"U     | | | | | | | a.a.a.a.a.a.a.a.| | | | a.a.a.a.| | f f f f a.a.a.a.a.a.a.a.a.a.a.a.| | | | a.a.a.a.| | | | |     N ",
"w.    | | | | | | | a.s.a.a.a.a.a.a.| | | | a.a.a.a.| | f f f f a.a.a.a.a.a.s.a.a.a.a.a.| | | | a.a.a.a.| | | | |     +.",
"G     a.a.a.| | | | | | | | a.a.a.a.| | | | a.a.a.a.| | f f f f a.a.a.a.a.a.a.a.a.a.a.a.| | | | a.a.a.a.| | a.a.a.    G ",
"G     a.a.a.| | | | | | | | a.a.a.a.| | | | a.a.a.a.| | f f f f | | | | | | | | a.a.a.a.| | | | a.a.a.a.| | a.a.a.    Q ",
"F     a.a.a.| | | | | | | | a.a.a.a.| | | | a.a.a.a.| | f f f f | | | | | | | | a.a.a.a.| | | | a.a.a.a.| | a.a.a.    H ",
"x     a.a.a.| | | | | | | | a.a.a.a.| | | | a.a.a.a.| | f f f f | | | | | | | | a.a.a.a.| | | | a.a.a.a.| | a.a.a.    Q ",
"w     a.a.a.a.a.a.s.a.a.a.a.a.a.a.a.| | | | a.a.a.a.| | f f f f | | | | | | | | a.a.a.a.| | | | a.a.a.a.| | a.a.a.    n ",
"u     a.a.a.a.a.a.a.a.a.a.a.a.a.a.a.| | | | a.a.a.a.| | f f f f a.a.a.a.| | | | | | | | a.a.a.a.| | | | a.a.a.a.|     w ",
"b     a.a.a.a.a.a.a.a.a.a.a.a.a.a.a.| | | | a.a.a.a.| | f f f f a.a.a.a.| | | | | | | | a.a.a.a.| | | | a.a.a.a.|     w ",
"q.    a.a.a.a.a.a.a.a.a.a.a.a.a.a.a.| | | | a.a.a.a.| | f f f f a.a.a.a.| | | | | | | | a.a.a.a.| | | | a.a.a.a.|     I ",
"G     a.a.a.| | | | | | | | a.a.a.a.| | | | a.a.a.a.| | f f f f a.a.a.a.| | | | | | | | a.a.a.a.| | | | a.a.a.a.|     5.",
"S     a.a.a.| | | | | | | | a.a.a.a.| | | | a.s.a.a.| | f f f f a.a.a.a.a.a.a.a.a.a.a.a.a.a.a.a.| | | | a.a.a.a.|     H ",
"s     a.a.a.| | | | | | | | a.a.a.a.| | | | a.a.a.a.| | f f f f a.s.a.a.a.a.a.a.a.a.a.a.a.a.a.a.| | | | a.a.a.a.|     u ",
"t     a.a.a.| | | | | | | | a.a.a.a.| | | | a.a.a.a.| | f f f f a.a.a.a.a.a.a.a.a.a.a.a.a.a.a.a.| | | | a.a.a.a.|     p ",
">.    a.a.a.| | | | | | | | | | | | a.a.a.a.| | | | | | f f f f a.a.a.a.a.a.a.a.a.a.a.a.a.a.a.a.| | | | a.a.a.a.|     k ",
"B     a.a.a.| | | | | | | | | | | | a.a.a.a.| | | | | | f f f f | | | | | | | | | | | | a.a.a.a.| | | | a.a.a.a.a.    b ",
"w     a.a.a.| | | | | | | | | | | | a.a.a.a.| | | | | | f f f f | | | | | | | | | | | | a.a.a.a.| | | | a.a.a.a.a.    F ",
"i     a.a.a.| | | | | | | | | | | | a.a.a.a.| | | | | | f f f f | | | | | | | | | | | | a.a.a.a.| | | | a.s.a.a.a.    _ ",
"i     a.a.a.a.a.a.a.a.a.a.a.| | | | s.a.a.a.| | | | | | f f f f | | } } } } } } | | | | a.a.a.a.| } | | a.a.a.a.a.    F ",
"q     a.a.a.a.a.a.a.a.a.a.a.| | | | a.a.a.a.a.a.a.a.a.a.f f f f a.a.a.a.s.a.s.a.| | | | a.a.a.a.a.a.a.a.a.a.a.a.a.    p ",
"U     a.a.a.a.a.a.a.a.a.a.a.| | } } a.a.a.a.a.a.a.a.a.a.f f f f a.a.a.a.a.a.a.a.| | | | a.a.a.a.a.a.a.a.a.a.a.a.a.    b ",
"t.    a.a.a.a.a.a.a.a.a.a.a.| | } } a.a.a.a.a.a.a.a.a.a.f f f f a.a.a.a.a.a.a.a.| | | | a.a.a.a.a.a.a.a.a.a.a.a.a.    &.",
"H     f f f a.a.a.a.p.a.a.a.a.a.a.p.a.a.a.p.a.a.a.a.a.s.f f f f s.a.a.p.s.p.a.a.} } | | a.a.a.a.a.a.a.a.a.a.f f f     G ",
"F     f f f s.a.p.p.a.a.a.a.a.a.a.a.a.p.p.a.a.a.a.a.a.a.a.p.i.p.a.a.a.a.p.a.p.a.a.p.a.a.a.a.p.a.p.a.p.a.a.f.f f f     Q ",
"F . . f f f g.a.a.a.a.a.a.a.a.a.a.a.a.a.a.a.a.a.a.a.a.a.s.s.s.a.p.a.a.a.s.p.p.a.s.a.a.a.a.a.a.a.a.a.a.a.a.d.f f f . . H ",
"x & %       h.s.s.s.s.s.s.s.s.a.s.s.s.s.s.s.s.s.a.s.s.s.s.s.s.s.s.s.s.s.s.s.s.s.s.s.s.s.s.s.s.a.s.s.s.s.s.h.      = : Q ",
"w 3 - .       f f f f f f f f f f f f f f f f f f f f f f f f f f f f f f f f f f f f f f f f f f f f f f       . $ a n ",
"w B ) ) a     f f f f f f f f f f f f f f f f f f f f f f f f f f f f f f f f f f f f f f f f f f f f f f     9.W S d y ",
"b i c i w     f f f f f f f f f f f f f f f f f f f f f f f f f f f f f f f f f f f f f f f f f f f f f f . . V K e.Q 0 ",
"q.S i 7 G * X                                   f f f f f f f f f f f f                                 X & $ q b B i I ",
"H #.+.l b x &                                     f f f f f f f f f f                                   . & : ( i 1 C 5.",
"S H ;.B 8 b ' H Q B q w U t.&.5.+.p p H G G $.    f f f f f f f f f f     s s I F F $.N 6 b ' H J B q q G t.,.9.] p a F ",
"a z N w w a G S ..N q k W ' F F J ` z g k x n     f f f f f f f f f f   . ) z g a z n i y p L S ` N q k R ` F D J ' j p ",
"q q 9 C S w t y p u s u w N L ) F G F u q 9 9 % .                     X > H S p y 9 0 C S w w i p u s u u B G Q G H S p ",
">.R S 5.r.F e i M R 1.( w 8 W K z 9 p g ,./ S &.&                     @ t q u p o./ S 5.t.F w i M U 7.] y 8 Q ) k q p k ",
"B +.` B S R u L 0.$.Q &.&.k i i i S >.z x #.' B S R u I 0.o.` +.&.a i i y U o.b b #.' B S R u G 0.&.` o.&.a u i i S >.x ",
"w x H F U o.g u D ) H D L j 0 i p T &.F q c K S I o.p u D K H D L k w i u T &.F w c K V U o.g p D J H D G k t u p T #.F ",
"i n ) H H B k u i x B F j k >.] k 9 B _ p x Q H H Z k u i x B G j j ,.o.k 9 B ) p z Q H H Z s u p b B G k j >./ s 9 B ) "
};
