/* XPM */
static char *_3a26ef2437840befe8e3f515a2b6daeiz1DFWkqpudADlPT[] = {
/* columns rows colors chars-per-pixel */
"60 60 220 2 ",
"   c #050404",
".  c #090706",
"X  c #0B0907",
"o  c #050D08",
"O  c #0C0B0A",
"+  c #120D0B",
"@  c #180F0B",
"#  c #08160D",
"$  c #14120D",
"%  c #1A120E",
"&  c #091A10",
"*  c #121212",
"=  c #191913",
"-  c #1C1C1C",
";  c #21150F",
":  c #281B15",
">  c #0C2917",
",  c #1D2413",
"<  c #292619",
"1  c #37251B",
"2  c #33231D",
"3  c #0F3C21",
"4  c #242424",
"5  c #2C2C2C",
"6  c #362420",
"7  c #3A2621",
"8  c #3E2924",
"9  c #353535",
"0  c #3D3D3D",
"q  c #452B1F",
"w  c #462D27",
"e  c #472E28",
"r  c #4C3326",
"t  c #593727",
"y  c #503832",
"u  c #5F3F36",
"i  c #663726",
"p  c #673B2A",
"a  c #6B3D2B",
"s  c #723F2B",
"d  c #134E2A",
"f  c #3B462B",
"g  c #166234",
"h  c #494E33",
"j  c #63422F",
"k  c #6E412E",
"l  c #73432E",
"z  c #79452E",
"x  c #7A482F",
"c  c #6E4230",
"v  c #684832",
"b  c #744531",
"n  c #784630",
"m  c #754A34",
"M  c #7C4B34",
"N  c #7C4F38",
"B  c #7E5037",
"V  c #7D533B",
"C  c #576A39",
"Z  c #782A44",
"A  c #1E7F44",
"S  c #2F7047",
"D  c #424242",
"F  c #4E4E4E",
"G  c #505150",
"H  c #545454",
"J  c #575758",
"K  c #585858",
"L  c #6A534D",
"P  c #755952",
"I  c #765A52",
"U  c #547047",
"Y  c #4C7659",
"T  c #54775E",
"R  c #6B7153",
"E  c #5B4B61",
"W  c #5B5764",
"Q  c #675C64",
"!  c #626260",
"~  c #6B6B6B",
"^  c #72646F",
"/  c #727272",
"(  c #7C7C7C",
")  c #814E35",
"_  c #855136",
"`  c #83543B",
"'  c #89563C",
"]  c #87593F",
"[  c #8C5B3E",
"{  c #935D3F",
"}  c #97613E",
"|  c #875B41",
" . c #8C5C42",
".. c #925E42",
"X. c #8D6045",
"o. c #886448",
"O. c #936245",
"+. c #9A6645",
"@. c #9D6946",
"#. c #956549",
"$. c #956949",
"%. c #9C6B4B",
"&. c #9D7051",
"*. c #A16B47",
"=. c #A26D4A",
"-. c #A5714C",
";. c #AB744D",
":. c #AF784F",
">. c #B2784F",
",. c #A47452",
"<. c #AB7651",
"1. c #A67856",
"2. c #AD7953",
"3. c #AD7D5B",
"4. c #B37C53",
"5. c #B87F57",
"6. c #B17E59",
"7. c #078632",
"8. c #13893A",
"9. c #208D3E",
"0. c #1E8245",
"q. c #1F8748",
"w. c #1E9558",
"e. c #2FA353",
"r. c #4F9155",
"t. c #728752",
"y. c #798779",
"u. c #6E9070",
"i. c #76B16F",
"p. c #AF805D",
"a. c #B68056",
"s. c #B98257",
"d. c #B4825C",
"f. c #BA855B",
"g. c #BD895D",
"h. c #8B9673",
"j. c #B88863",
"k. c #BE8C62",
"l. c #BE906A",
"z. c #9ABB6A",
"x. c #93AE74",
"c. c #98AB77",
"v. c #A4BC7F",
"b. c #C08A5D",
"n. c #C08E63",
"m. c #C49165",
"M. c #C5956B",
"N. c #C9976C",
"B. c #CB9A6D",
"V. c #C39770",
"C. c #9AC766",
"Z. c #A2C76C",
"A. c #A4C574",
"S. c #A9C777",
"D. c #B0CC7B",
"F. c #B6D976",
"G. c #C5E47E",
"H. c #99798E",
"J. c #729C85",
"K. c #799F84",
"L. c #7CA78A",
"P. c #828282",
"I. c #878787",
"U. c #8C8C8B",
"Y. c #8E8C8B",
"T. c #948E98",
"R. c #939393",
"E. c #999799",
"W. c #9B9B9B",
"Q. c #A29A9B",
"!. c #8FAF8C",
"~. c #A9B199",
"^. c #AABA98",
"/. c #9F9EA1",
"(. c #9FA0A4",
"). c #A5A5A6",
"_. c #A8A6AA",
"`. c #ACACAC",
"'. c #AEB3A8",
"]. c #B1B4AC",
"[. c #ADACB3",
"{. c #B1AEB4",
"}. c #B2ACBA",
"|. c #AEB3B0",
" X c #B3B3B3",
".X c #B5B3B9",
"XX c #B7B8B8",
"oX c #BCBCBD",
"OX c #C5B5BF",
"+X c #ACC488",
"@X c #B0CA88",
"#X c #B1C692",
"$X c #B4C39B",
"%X c #BAC5A6",
"&X c #BDC3B6",
"*X c #CEE68C",
"=X c #C2C5BA",
"-X c #B4A8C4",
";X c #BFBEC1",
":X c #BEB7C9",
">X c #C7B5C6",
",X c #C3BDC2",
"<X c #C3BFD0",
"1X c #BEC1C2",
"2X c #C3C3C5",
"3X c #C6C6C8",
"4X c #CAC6CE",
"5X c #C6C9CA",
"6X c #CACACC",
"7X c #CCC5D3",
"8X c #CECED1",
"9X c #D0CFD3",
"0X c #D2D2D4",
"qX c #D6D6D8",
"wX c #D1D9DB",
"eX c #DADADD",
"rX c #D2C6E5",
"tX c #DAD9E0",
"yX c #E5D5E3",
"uX c #E1E1E3",
/* pixels */
"n %.4.[ *.M ] d.N #.k.4.M X.s.>.<.l =.@.k =.2.[ @.M ] 6.M O.n.4.n  .j.>.<.l @.@.a =.4.] @.M ] 6.N O.n.>.M  .j.4.<.b %.=.",
"l l =.2.b a 6.B.,.i ) ..` ;.5.O.M a l ) a b =.4.b k 6.B.,.i ) O.` ;.4.#.N a z M a l *.4.b a 6.B.-.i _ O._ =.5.O.) a z n ",
",.b p  .M +.4.O.4.@.l b n =.=.p c &.O.#.1.b a ] N +.4.O.2.@.b l n =.=.p c ,. .$.1.b p  .N @.4.O.2.%.s b n =.*.p b &.X.X.",
"N.3.b a M 4.=. .-.f.+.n n b p X.l.k.f.s.N.3.n k M 4.=. .-.b.%.n m b a  .n.k.j.f.N.3.n a M 4.=. .,.b.@.n n l p [ n.n.g.5.",
"-.g.=.z b @.%.f.f.@.s ' m.3.s ` g.;.@.-.-.g.-.z s @.%.6.s.@.s ' l.3.s | f.;.+.=.=.g.<.s s @.=.f.f.O.z ' l.3.s ] g.<.@.-.",
"-.s... .#.i m ;. .b #.6.j.j.%.a b +.2.;.-.s.{  .#.p p 9 - * O O O O * 4 D +.2.;.=.s... .O.a m ;.{ b #.4.g.k.%.p b +.2.<.",
"*.M M j.N.O.p a k =.n.;.*.:.f.` m ,.6.;.*.M ) 1.o.6 $ * - 5 9 0 D 0 - * o X 8 m @.m ) d.N.O.p p k =.k.;.=.>.f.` b ,.4.-.",
" .s 3.4.:.m.,.b ` 5.;.=.:.O.) a ` a.;.4.j 3 > & # o 3 ! K ! ~ ! ! ~ ! K ! 9 - O . = 9 ,.2.m.<.s ` s.=.=.5.O.` i ` 5.;.<.",
"b 1.b.=.+.O.+.{ _ M ] N m b m %.` a 1 X   & = 3 g 0.A Q ^ ^ Q K K K J K J J K G 0 - . : t [ +.] ) ) ] m l l z %.| b N O.",
"z +.>.2.N i M n [ ,.| m  ._ O.A d X # g q.q.q.J.T.U.U.T Y Y T I.U.U.U.R.P.! ! ! ~ K / : * O 5 z ' 1.| N X._ +.m.2.%.V l ",
" .n ..n a 3.M.3.` 6.g.6.V.| : o # d 0.q.q.q.q.!.7X,X,Xe.7.7.9.XX4X;X=X6X'.H H K K K F E F 5 X + w 2.g.6.N.=.N @.>.N.1.s ",
"M.%.m p ,.m.6.n.%.l %.v h 4 = U r.c.].!.L.L.L. X2XoX;X!.u.J.K.`. X X.XXX`.U.I.U.Y.R.J.! ! K I.9 . @ >.f.O.l i k  .@.b ,.",
"<.g.6.`  .=.=.;.4.N : w < f z.Z.F.^.}.>XyXyXyX6X3X6X6X,XOX>XOX'.`. X`.`. X,X1X;X2X0XW.F K W J J F + % ` b  .p.p.n t #.n.",
"=.-.g.+.i { 4.;.;.1 R h C A.A.#X%X=X,X3X3X3X2X3X3X3X6XoX=X,XoX;XoXoX2XoX;X|. X X X.X~.h.h.!.u.S y.F * % ,.B.g.m.4.N ) -.",
"N ] ..n l N =.%.V : < U @XS.C.%XrX4X6X3X2X3X3X3X6X0X3X8X6X6X8X6X6X0X8X8X2X`.[.`.'.}.^.F.F.*Xi.7.S K y O j a.=.@.>.4._ n ",
"a b a O.=.l c p < ; C A.C.#X%X=X4X3X3X3X3X3X3X6X8X3X6X0X8X6X6X0X6X3XqX6X2XoX;X;X;X X].^.+XD.z.i.u.H K 9   v -.2.-.;.%.) ",
"f.1.@.k.N.-.l r < 2 z.A.C.%XrX3X3X3X3X3X3X3X2X6X6X3X6X6X6X6X6X8X6X3X8X6X3X6X6X6X2X`.{.-X^.Z.D.*Xh.E ~ J - + 4.4.] a M ' ",
"%.a.a.+.%.1.x w 5 c.Z.#X&X=X7X3X3X3X3X3X3X3X3X3X2X6X2X2X3X3X3X2X3X3X2X2X3X3X3X3X3X,X;X2XXX'.+XF.i.S T J D X r m m %.6.] ",
"b [ :.-.1.p.B % h C.Z.%XrX6X3X3X3X3X3X3X3X3X3X3X2X2X2X2X2X2X2X2X2X2X=X3X3X3X3X3X3X6X6X6X2X-X^.F.i.8.T J G @ = m _ 1.s.=.",
"z +.;.;.>.@.z . t.A.Z.$X4X3X3X3X3X3X3X3X6X6X6X6X6X3X3X6X6X6X3X6X6X3X3X6X6X6X3X6X6X3X3X6XOX{.].=Xu.A T Q ( - = $.) p *.4.",
"b %.2. .@.z V X t.A.Z.$X7X3X3X3X3X3X3X6X6X6X6X8X8X3X3X6X6X6X8X6X8X3X3X6X6X6X8X8X6X3X3X6XoX`.{.>XL.8.Y ^ K 0 * ] 4.b +.=.",
"a n *.4.l k a.$ C +X=X=X3X3X3X3X3X3X).! ! ! ! ! ! 3X).! ! ! ! ! ! 3X).! ! ! ! ! ! 6X3X6XoX{. X}.!.C.u.W K F O j ) a n n ",
",.k p [ N +.a.= f $XrX4X3X3X3X3X3X3X_.! ! ! ! ! ! 3X).! ! ! ! ! ! 3X).! ! ! ! ! ! 0X6X6X&X{. X}.^.G.h.K J H X e a ,.X.O.",
"M.3.n k M 4.-.1 , #X7X5X6X6X3X3X3X3X).! ! 3X3X! ! 3X3X3X).! ! 3X3X3X).! ! 3X).! ! 0X3X3X3X3XoX}.^.F.h.E J H X j m.n.j.d.",
";.j.,.z s +.%.v   #X7X2X2X2X5X3X3X3X).! ! 3X3X! ! 3X3X3X).! ! 3X3X3X).! ! 3X).! ! 0X3X3X6X6X>X{.^.F.h.W H H X t f.;.@.-.",
"-.s...' #.i N `   H.8X.XU.{.6X3X3X3X).! ! ! ! 3X3X3X3X3X).! ! 3X3X3X).! ! 3X).! ! 0X6X3X2X6XoX{.].&XP.K J J O 1 b #.2.2.",
"=.N M j.M.+.p t   J.8X XP.`.8X3X3X3X).! ! ! ! 3X3X3X3X3X).! ! oX8X3X).! ! 3X).! ! 6X3X3X3X6XoX]. X,XI.J J K = 1 n 1.4.;.",
"[ c 4.4.2.M.,.c o / 8X XI.`.8X3X3X3X).! ! 3X3X! ! 3X3X3X).! ! 3X3X3X).! ! ! ! 3X3X3X3X3X3X6X;X`. X;XI.J K J - ; ` 5.-.2.",
"l 1.g.=.$.O.+.[ . ~ 7X XP.`.8X3X3X3X).! ! 3X3X! ! 3X3X3X).! ! 3X3X3X).! ! ! ! 3X3X3X3X3X3X6XoX`. XoXI.K K K 5 % ] l N ..",
"l +.4.2.N i B z . ~ 8X}.U.'.6X3X3X3X).! ! 3X3X! ! 3X3X! ! ! ! ! ! 3X).! ! 3X3X3X3X3X2X2X6X6XoX].{.oXI.K J K 9 : =.%.V b ",
" .n ..b k p.M.&.. ( 8X3X_. X0X3X6X6X0X! ! 3X3X! ! 3X3X! ! ! ! ! ! 3X).! ! 3X3X3X3X6X3X6X2X3X2X XXX=XI.K K K 9 % [ N.6.s ",
"M.%.m p -.m.,.2 X h.6X6X6X8X0X6X6X6X8X6X8X0X3X3X6X3X3X3X6X6X6X6X3X3X3X6X3X6X6X6X8X6X6X0X3X;X'.2X2X;X( F K K D + u +.z ,.",
"<.g.s.`  .*.r : D P.6X6X0X6X6X6X6X6X6X8X8X0X3X6X6X3X3X6X9X7X6X8X6X2X5X6X5X7X5X8X6X5X6X9X3XXX XoXoXoXU.~ K K H X r t ..b.",
"%.-.g.+.p N 5 4 oX5X3X2X3X2X2X3X3X3X3X3X2X2X2X2X3X3X3X3X1X8X1X6X5XwXqXqXwXrXwXqX9XqX8X6XoX|.XX X X X X2XP.K K $ r ) ) ;.",
"N  .O.z n t 5 9 3X3X3X2X2X2X2X2X2X2X2X2X2X2X2X3X3X3X3X3X8X1X7X1X,X(.).).[.(._._._._.).6X;X`.`.`.`. XXX=XP.K K 4 : 4.` m ",
"k b p +.&.r 5 D 3X3X3X3X3X3X3X2X3X3X2X3X3X3X3X3X3X3X3X3X1X8X1X7XXX( H.J.&.J.P.P.P.P.P.eX=X X).U.).oXXXoXP.K K 0 % =.=.) ",
"j.1.@.k.N.V 4 D 3X3X3X3X3X3X3X3X3X3X3X3X3X3X3X3X3X3X3X3X3X2X1XwX;XP.P.( P.P.P.( P.P.P.0X,X X).U.).`.|.oXP.K J 9 + a m ' ",
"@.4.s.O.%.%.- 0 3X5X9X8X6X8X8X6X2X3X3X3X3X3X3X3X3X3X3X3X3X3X;XwXqXuXuXuXuXuXuXuXuXuXqX2XoX X).R.E.U.).2XP.W J 4 % -.d. .",
"l [ 2.=.,.o.- D 6X1XXX.X X.X X;X6X3X3X3X3X3X3X3X3X3X3X3X3X3X3X[._.).).).).).).)._.).).8X=X X).R.E.R.).2XI.K J - 2 ;.f.=.",
"z @.;.-.X.+ < ~ qXoXI.U.R.R.I. XeX8X8X3X3X3X3X3X3X3X3X3X3X8X2X1.P.P.P.P.P.P.P.P.J.P.P.uX,X X).U.E.R.).2XP.K ! O r a @.>.",
"n +.4.] 9 * .X2X.X`.R.E.E.E.R.~.XX X X>X3X3X3X3X3X3X3X3X3X6X3XP.P.P.P.P.( P.P.P.&.P.J.7X,X X`.Q.W.R.`.2Xh.E H . %.s @.*.",
"k l =.#., t.qX.XP.U.R.R.W.E.W.U.I.U.J._.0X3X3X3X3X3X3X3X3X2X3X0X0XqX0XqXqXqX0XqXtXrXqX5X,X`. X;X).I.).2XJ.J D o N a z M ",
"1.b p j - x.,XXX).).)./.E.R.R.).|.`._.;X4X3X3X3X3X3X3X3X3X3X3X3X2X6X2X5X2X6X6X2X1X1X1X1XoX`. XXX`.W.`.1XH.J 0 O s &.X.X.",
"M.3.b t = f T.[. XXXoX).U.R.I.XXeX9X0X5X3X6X6X3X3X3X3X3X3X6X0X6X6X6X6X6X6X6X6X6X1X}.[.[.`. X{.].XXXX.X:X( H 9 O m.n.j.5.",
"-.g.-.n : < R ~.{..X X`.).).).|.1XoXoXoXoXoXoX2X3X2X3X3X3X{.`.`. XoXoXoXoXoXXX>XXX|. X X X X X X|..X@X@X( J 5 * f.2.+.=.",
"-.s...N % ; ^.D.-X{.'..XXXoX5X1XoXoXoX1X1X1XoX5X6X0X8X9X6XR.I.I.U. XXX`. X'.`.].`.{.|.|. X X{.}..X;X@X@Xh.Q 5 * b #.2.>.",
"=.M M | = x.@X@XJ.J..X XoXQ.y e e w e w w w w `.9X&X`.;XoXQ./.E.).`. X_._. X X{. X X X.X X.X@X@X@X@X!.L.U./ 5 * b 1.6.;.",
"] k d.y < @X#X#XJ.J.>XoX0XU.e e w w w w w w w /.uX`._. X`.)._..X_.T.{.).E. XXXXX.X]..X2X=X<X@X@X@X@Xi.w.u.H.4 * ` s.;.2.",
"l ,.g.% h @XL.J.@X@Xq.q.w w I I j u P I I I I e w w w w e Q.[./.).@X@X).W./.(./.).2XE.w w w w @X@X@X@XL u.r.9 & | s N ..",
"l +.k o x.@XJ.J.@X@Xq.q.w w I I u u P P I I P e w w w e w Q._.T.E.@X@XT.T.R.E.W._.wXY.w w w w @X@X@X@XZ S e.G    .&.` b ",
"X.l $ C q.q.q.q.w w e e w w P P P I e w e e P P I I I w w q.q.@X@X@X@X@X@X(.U.e w w e L L L I w w w w w e e K - : N.2.s ",
"M.#.  ^.q.q.q.q.w e e e w w P P P P e e w e I I I I I w w 0.q.@X@X@X@X@X@X`.P.w w w w P P P I w w w w w w e K G X  .s -.",
"-.$.  7 w w w w L I I I I I w e I I P P P P P P I I I w w w w w w e w w w w w w e P P P e e u u I I I I P P w w O ; #.n.",
"@.v X w w w w w P P I I I P w e I I I P P j u j u I I e w w w e w w w w w w w w e I P P w e u j I I I I P P w w : . M -.",
"B q + w P P I j u P w w e w I I I I P P P u u u u I I P u u P P I I I I P P P P I I P P P P w w w w w w I P P P w O @ l ",
"k % % e P P P u j P w w e w I I I I P w e w w e w I I P u u P P I I I I w w w e u j I P P P w e w w w w I P P P w w . w ",
"% X w w P P P I I I I I P P I I I I I e w w w w w P P P P P u u I I I I w w w w u u P P P P P I I j j P P P P P P P : O ",
"  < w w P P P I I I I I P P I I I I I P P P P P P P I I P P u u I I I I P P P P P P P P P P I I I j u P P P P P P P e O ",
"  2 2 6 7 7 7 6 7 7 7 7 8 8 8 8 1 w e e w w w w w w e e w w w w w e w w w w 7 w 8 8 w w w w w e e e e e e e e e w e e + ",
"                . X X X X X X . o . . . X               . X   X X O O + * O $ % + + X X . . . X . . X o . O O O + + O X "
};
