/* XPM */
static char *_575061003ce4782a3828700a97e9be4E9eEPrEwD6NXt5fq[] = {
/* columns rows colors chars-per-pixel */
"60 60 91 1 ",
"  c #5D2F21",
". c #5F3023",
"X c #633626",
"o c #683725",
"O c #663827",
"+ c #6A3927",
"@ c #643728",
"# c #663A2A",
"$ c #6B3C2B",
"% c #713F2B",
"& c #6E412E",
"* c #72422E",
"= c #79462F",
"- c #7B482F",
"; c #6E4230",
": c #744531",
"> c #794730",
", c #754934",
"< c #7B4B34",
"1 c #764B39",
"2 c #7D4E38",
"3 c #7F5037",
"4 c #7E513A",
"5 c #814E35",
"6 c #804F38",
"7 c #835136",
"8 c #84543B",
"9 c #89563B",
"0 c #87583E",
"q c #8C5A3E",
"w c #925D3E",
"e c #97613E",
"r c #99623F",
"t c #825640",
"y c #875A42",
"u c #8C5C42",
"i c #865F4E",
"p c #8B5F49",
"a c #915E42",
"s c #8E6045",
"d c #8D634A",
"f c #946244",
"g c #9A6544",
"h c #9D6946",
"j c #946649",
"k c #9A6748",
"l c #9D6B4B",
"z c #9F704F",
"x c #9B6D50",
"c c #9D7154",
"v c #A26B46",
"b c #A26E4B",
"n c #A5714D",
"m c #AB744D",
"M c #AF784F",
"N c #B0774E",
"B c #B3794F",
"V c #A47453",
"C c #AB7651",
"Z c #A67856",
"A c #AD7953",
"S c #A57758",
"D c #A57A5E",
"F c #AD7E5B",
"G c #B37C53",
"H c #B87F56",
"J c #B17F5A",
"K c #AF805D",
"L c #B68056",
"P c #B98256",
"I c #B4825B",
"U c #BB865B",
"Y c #BD885D",
"T c #AE8262",
"R c #B58561",
"E c #B98761",
"W c #B78862",
"Q c #BD8B62",
"! c #BE8F6A",
"~ c #BF916B",
"^ c #C08A5D",
"/ c #C18E63",
"( c #C49165",
") c #C89367",
"_ c #C5946B",
"` c #C9966B",
"' c #C7986D",
"] c #CB9A6E",
"[ c #C29771",
"{ c #C69B74",
"} c #CA9B72",
/* pixels */
">lGuv<8R<fQG<sUNC*vl&vAqh28I2f/G=sUNA*lv&vAqh<8I2f/B<uYNm*lv",
"**bA:$J]Vo7f8nBf3$*<&*bG,$G]V@5f8nGf3$*<$*vG:$G]V@7f8bGf4&*<",
"V*#q<gGeGl&*=bn$&zfjZ:#q2hGfGk:*:ln#;cfjV:$q2gLeAl&=>lb+&lfa",
"'F:&2AnunYg,,*$u(QUU'F>&<mnun^h,<:$fQ(UI'F:&2Anun^g,,*#f!!UP",
"mYn=*kbIUh*q~F$8UAvnv^V=*glIUh%9~F*8YmgmnYn**hbIPk*9QK*0UNvn",
"bPauj+<mu,fGUYl$,fZCnPwujO2mw;jGUYh$:gCCnLfyjO,mq:fGYQg$:jZN",
"v2<I_f##&l(mbGU8,VGmb<<I_f#$;b/mbGU8:VJmb<<U`f#$:n/mvGU8:ZGm",
"u$KGM)V:7PnvAf3$8GMLq&IAA(n*8PnlGf4$8LNGq&IAN)V*8InlGf8+8PmC",
"*Z^bkfgw770,>&,ly&5f=ZYbkrkq75q,:*<x8*2a=ZYzkfgq5<q,**,ly;2a",
"=gGG4X2=9V0,u7f(Gx8%=gGM4X2=9Zy1u7g/Axt%=hBA3X2>qZq<s7g/Gl8:",
"u>w:&F_F8LYI)n<hN`Z=y<e,&F~K8LYI`n,hG`A>y,w>*K_F9GUJ`n<hB`Z=",
"'l,$l(I/l$MUg:@*ug:V]l<+n(LQl$MUg*+&ug=z}l,$n/L/l$AUr*O&qj=c",
"nYI8qbvmA88q:aFF, fYmUL8uvhmA80q*uFK> fUmUG8uvvmG89q*uFK:Xa^",
"lmYgOqGmmg&*V]U(I<2nnnUj#qGmMg*&V]Y)A<2mbmUj#yGmmg&$V}Y(G<2m",
"28f>=2nlPf*7AGbvmG8580f*=2nlLg*3ZGvvAL9540e=>2VlGf*8AGvvmH8,",
"&&$fl*&:2=5,*fnAnmb<*$$kl&;><=3=:fnMnnb,:$$jl%&:5>6,*jnAnml<",
"UAhQ`n*2dZWI*#AA8$27UFkQ`l*2dVQK*$GG8$,5UFhQ]b=:dVQI:#AG0$<9",
"lIGglZ=n)UAUU7,>,lF8aPLgnZ=V)UGII5,>,cF8aPGgbZ>V`UAUI4>>,bF9",
"$aNnZK7,vMvvZ8&>2mUb%qmbVI7>vmvvn8*>4CUb%wNbVJ8>bMvvm8&>4ZPb",
">jmmBl<&:flm78UI8$vG2fmmBl<$*jbn78RI8+vG<fCmBl<$:fzn78WI5$vG",
":hGul*8I,yUG<jQBG%hh&hGul>8U2yUG>j/GG$gv$hGqv*8R,yIG,fYBG$hv",
"*:vC>$I]V$0e7nGf4$*<$:vA,&F]n$9f8bBf6$:<$,bC,*G]V+qf8nPf5&:<",
"V*$q2gGeGk&**lb$&nsjZ:$q2gGrGl&*:bb#;xfjV:$y<hGfAl***bb#&Vfu",
"'F:&<GnynYh,2*$u(!UI`J:&<CnynYh>1:$a_/YP`F:&5CnuV^g=,:$a!/QI",
"nUn=%glIUv%9~F*8YGvbbYb=*ghIUh*9~T*8YmhbmQn*$kbIUg*9!T*8Umvb",
"nUauj$<mu:fGUQh$:fCCmHayj#2mq:sGUYv$:fGmnPwqj#<mq:sGYUh$:jZG",
"b2<I`f#$&l/mbGP8:VGmb<5R_f@#&l/mbGU2,VJCb<<I`j##&b/mnNU8:ZGm",
"q&JAA_C;8PnlAj8+8INGy*FGN)V*7PmlGf8$8HmGq*FGA)C&8PmlNf8+8HmC",
"*ZYbkfkq559<>:>x9%2a:Z^vgeky55q,*:iD8*2f*Z^bgfgw55y,**,by*2a",
"=gGA2X3-qVy1y7f/Jx4>2jGN4#2<qVy2p8c_Ax8;=gGG2O4=qVy2s7g(Gl4:",
"u>a>&K_K8JQH`b:vN`T4i4d4:T~TpRQR{S4lI}T8s=w:$T[F9JYG)V<lN`J%",
"_l,#n(GQl%CUg>O=qg1D{c41S_R!x1FYl2;1dl1D{l,$n)G/l$N^f:o*yg=V",
"nUI8uvvmG89q*uFK1 aEmUGyabvmG9ya:uIT,XfUVYL8abvmG89q*uKK,.s^",
"lmYg#qGmmf$*V'U(H51mvm^f#qGmmf$$b`U/L<2nhmUf#qGmmg$*V]UQL23n",
"2qf=:2nlPf=8ALbvNG858yf=*2bbPg*7AGbvNG8530f=*2bbHf*7AGvvGG8,",
"&*$jl:$:5=2>&fnAnnn>;$$jl*&:5>5,*jnAbmb<:&$jl*;:2=7,*fnGnnv5",
"RZlQ`b=<dVQJ*#AG8$<5EFh/'b=,dVQF*$AG8$<5EAl/]b*1dV!I*$AG8$28",
"kPGglV=V)UAIU4:,>zRtuIHflZ<n)UGIU6:,:VT8wIGflV=V)UGIU6::>VI0",
"*wNbVI6:vMvvV8&><ZYb%qNvVK3>vmvvV7&>2CYb$wNbVJ8,vMvvC8&:2AUn",
":gCmGh<$:fnn78WI6$vN5fCmGh<$:jnn58WI8@vN<jmmGv<+*jbb28QI3#gN",
":hGuv,8Q,yUG=jYGG&gv$lGuv>8E,yUG>j/GG$gv$hGuv>8R,yUG=jYGC*kv",
"%:vG,$J]V$9f7mGf8$:<$:vA,&J]Co9a8nGa8$:<$:vC,$F]n$9f6nGf8**<",
"V:$y<gGeGg&*>ln$&lfjZ,$u<jLeGk&::bV#;lfjZ:$u2hGrAk::>bb#;lfu",
"'F:&<CnynUg,2*$a_/UI`J,$<mnynYh<<*$f//YP`F:&<mnunYg>2*$a(/YI",
"bEV=*kbIUh*9~K&8YCvnn/b=*glIUh*8~F*8Umvbn/z=*kbIUh%9!F=8Umhn",
"mPwqj+<ma:fGUUh$:jCmnHwyj+<ma,fGUQv$:fAmnHwujO2mu:jGUQh$:jAC",
"v25J`j##&l(mvGU8:VGCv<<I_f##&l(mvGY8:ZGmv<<I_f#$$z/nvGP8:VGm",
"y%JAm)Z:8PnlNf4+8HmHu%JAG)V:7PnlNf2$8HCGu*JGC)C&8PmhAf8$8PmA",
":VYbgfhq5502>&<l9:2a:VYbjrkq75y2**<l8:2f*Z^bgekq7<q,>&2ly*2f",
":gGN2X<=qZq,u7f/Ax8%>gGN4X<=qZy<u7k/Axt%=gBG4X2=9Zq,s7j(Gl4*",
"u>a,:F_F9AYL_n,hG`A>u,w:&K_F9GYG_n<hN`A>y,q>&K~K9GUL_n2gG`A%",
"_l,ob/J/l$MUg:@*ug:V]l,$n(G/l$AUh:O%uk*V}l2+n(IQl&AUg*O&ug*V",
"mUI8uvvmB80q*sKK, fUmUI8ubvmN90q*uFF,.fUmUI9avvmG80u*uFF,.f/",
"hm^k#uGmmj*&V]U(I<<mbm^j@qGmmf*$V]U)I<2mbnUfOqGmmg&$n]Q(G22n",
"2qa>:<bbPe&8AGvvmI958qw**2nlPf*8ZGbvmG8528a::<nbGf*8AGbvmL8,",
"&;$jl:;:<<3>&fZAbmb,;$$kl*&,5=2=*jnAmnv<:$%jl:;:5-7,:fnMnmv<",
"KFlQ`n*2dZQJ*#AA8$<5QFlQ`n*,dV!I*$AG8$<5UFl/]b:,sZ!J*&AM0&<7",
"fGGglZ<n)IGIU4>>:nR8qLGglZ<n)UAIU3>:,zItuIGelZ>V)UGII4>,,lR8",
"=wNbVI8>vNmvn8&>2CYb$wmlVJ2,vCmvn8&,2mYb$wNbVH8,vNnvn8&>3nUz",
"&umnbf2:>9fl74KF2$gC2qmnbf8=>qfb84IK4#gm<qmnnf2:,9fv74IF3$fm"
};
