/* XPM */
static char *_701ed6e448a4c7e88cabcc7cd85d620h61OGPDN53koVOmy[] = {
/* columns rows colors chars-per-pixel */
"60 60 251 2 ",
"   c black",
".  c #14041A",
"X  c #340218",
"o  c #0D0928",
"O  c #370926",
"+  c #37162B",
"@  c #250E31",
"#  c #2A1837",
"$  c #361931",
"%  c #18252C",
"&  c #292836",
"*  c #2B2A37",
"=  c #372536",
"-  c #352B3B",
";  c #31313E",
":  c #490314",
">  c #641318",
",  c #78260D",
"<  c #42132B",
"1  c #471B2B",
"2  c #541A29",
"3  c #661A28",
"4  c #4A232F",
"5  c #592729",
"6  c #5F3023",
"7  c #67212A",
"8  c #762929",
"9  c #673626",
"0  c #663A2A",
"q  c #6B3D2B",
"w  c #773529",
"e  c #6A3B37",
"r  c #7C3C33",
"t  c #6E412E",
"y  c #73432E",
"u  c #79462E",
"i  c #7C482F",
"p  c #6E4230",
"a  c #744531",
"s  c #794730",
"d  c #764933",
"f  c #7C4B34",
"g  c #764C38",
"h  c #7D4F38",
"j  c #7E5038",
"k  c #5E6B35",
"l  c #131947",
"z  c #291B43",
"x  c #2C2944",
"c  c #2E3443",
"v  c #2E3B44",
"b  c #2A3949",
"n  c #313542",
"m  c #313B45",
"M  c #323E48",
"N  c #2C3D53",
"B  c #493C41",
"V  c #2D434A",
"C  c #2C4549",
"Z  c #33434B",
"A  c #364848",
"S  c #355848",
"D  c #2A4A53",
"F  c #324C51",
"G  c #3A4B54",
"H  c #2D585A",
"J  c #315355",
"K  c #325857",
"L  c #315A5C",
"P  c #396848",
"I  c #356757",
"U  c #377355",
"Y  c #1A5E6E",
"T  c #0F5074",
"R  c #2A5B67",
"E  c #29586D",
"W  c #23646C",
"Q  c #2A6768",
"!  c #2C646D",
"~  c #2E6B6A",
"^  c #316463",
"/  c #316B65",
"(  c #306E69",
")  c #2F726B",
"_  c #327466",
"`  c #357C63",
"'  c #30736C",
"]  c #357C68",
"[  c #2D6C72",
"{  c #28657A",
"}  c #2E7574",
"|  c #307A71",
" . c #327A76",
".. c #6F7B49",
"X. c #447D64",
"o. c #8B3417",
"O. c #A03C12",
"+. c #882B29",
"@. c #863A29",
"#. c #8E4229",
"$. c #944429",
"%. c #994828",
"&. c #824E35",
"*. c #844D38",
"=. c #974935",
"-. c #85543A",
";. c #84543B",
":. c #89563C",
">. c #8B5A3E",
",. c #945336",
"<. c #925D3E",
"1. c #AA522F",
"2. c #A65737",
"3. c #97613E",
"4. c #B5643B",
"5. c #D06938",
"6. c #8C5C42",
"7. c #915E42",
"8. c #AC5C40",
"9. c #8E6147",
"0. c #936244",
"q. c #9A6545",
"w. c #9D6946",
"e. c #946549",
"r. c #996749",
"t. c #9C6B4B",
"y. c #9D6E50",
"u. c #A26B46",
"i. c #A26D4A",
"p. c #A5714D",
"a. c #AA744D",
"s. c #AF784F",
"d. c #B3774E",
"f. c #A47553",
"g. c #AB7651",
"h. c #AE7953",
"j. c #AD7D5B",
"k. c #B37C53",
"l. c #B17F59",
"z. c #E07F4B",
"x. c #718337",
"c. c #0D9A54",
"v. c #1A9E53",
"b. c #3E844D",
"n. c #378B58",
"m. c #3B8C5D",
"M. c #2D9255",
"N. c #3B9A56",
"B. c #3D945A",
"V. c #16A94E",
"C. c #39B24E",
"Z. c #29A353",
"A. c #35A652",
"S. c #3AA652",
"D. c #36A953",
"F. c #3CA952",
"G. c #38B454",
"H. c #368162",
"J. c #398866",
"K. c #308A70",
"L. c #338779",
"P. c #418C4F",
"I. c #42984D",
"U. c #409554",
"Y. c #429C55",
"T. c #409959",
"R. c #569158",
"E. c #6C9355",
"W. c #47A74D",
"Q. c #45B34D",
"!. c #4BB44E",
"~. c #4DBA4C",
"^. c #56B54E",
"/. c #44A254",
"(. c #47A657",
"). c #46AB51",
"_. c #4AAD51",
"`. c #55A953",
"'. c #53AF50",
"]. c #45B654",
"[. c #4AB452",
"{. c #4ABA52",
"}. c #59B251",
"|. c #68B64E",
" X c #71B74F",
".X c #74B94E",
"XX c #7DBA4E",
"oX c #73A952",
"OX c #63B350",
"+X c #65BA51",
"@X c #4F8B61",
"#X c #588A60",
"$X c #638861",
"%X c #3AC653",
"&X c #51C549",
"*X c #4DC554",
"=X c #51CD55",
"-X c #7DC951",
";X c #40D163",
":X c #949E3D",
">X c #D6EA3F",
",X c #8B9C44",
"<X c #AF805D",
"1X c #B88157",
"2X c #B4825B",
"3X c #BB865B",
"4X c #BD885D",
"5X c #84BD4D",
"6X c #8CBF4D",
"7X c #91B14C",
"8X c #A5BE4C",
"9X c #B88863",
"0X c #BD8B62",
"qX c #BF926C",
"wX c #C78759",
"eX c #F19250",
"rX c #FEA35C",
"tX c #C18E63",
"yX c #C49165",
"uX c #C6956B",
"iX c #CA976B",
"pX c #CA996C",
"aX c #CA9B70",
"sX c #FFAB62",
"dX c #8EC74E",
"fX c #97C54B",
"gX c #9BC44C",
"hX c #A4C34A",
"jX c #AAC64B",
"kX c #A5CE49",
"lX c #ACC94B",
"zX c #B3C64B",
"xX c #B3CA4B",
"cX c #BBCC4A",
"vX c #ADD04B",
"bX c #B4D44D",
"nX c #BAD74B",
"mX c #BBDD50",
"MX c #B1E04C",
"NX c #BEE150",
"BX c #C2CE4A",
"VX c #C8D548",
"CX c #D5D747",
"ZX c #CEE84D",
"AX c #D6EA47",
"SX c #C5E752",
"DX c #D8FC59",
"FX c #E8E143",
"GX c #E6FE5A",
"HX c #E9FF60",
"JX c #357F81",
/* pixels */
"s t.s.6.u.f 6.j.f e.0Xk.s 9.2Xh.s.y w.w.a t.h.                      9Xh.h.y q.w.t u.h.6.t.f -.1Xg 0.0Xk.f 9.1Xh.a.y w.w.",
"y y i.k.a q l.aXp.q &.q.-.p.k.3.j q y &.q a i.                      k.0.&.q u g q u u.h.d q j.pXf.9 &.q.-.p.k.0.j t u f ",
"f.a 0 6.f q.k.3.h.r.t y s p.i.0 p t.0.        lXjX8X8XhX8XhXhX8XhXmX        0.r.f.a 0 6.f w.k.0.h.r.a y y p.i.q t t.0.0.",
"uXj.a q f h.p.6.p.4Xw.s g y 0 0.yX0X3X        mXmXbXbXbXvXbXbXbXbXSX        4X2XiXj.a q f s.p.6.a.4Xq.s f u 0 >.qX0X3X1X",
"a.4Xp.i y r.i.2X4Xw.y :.qXj.y         8XNXvXvXjXjXjXzXcXcXcXxXhXjXjXxXvXNXlX        f.y y q.i.3X3Xq.y :.qXj.t :.4Xh.w.p.",
"i.1X<.6.e.0 f a.6.a 0.k.2X0Xw.        8XmXvXlXlXjXjXgX5X6X5XgXlXjXjXlXbXbXlX        3.6.r.q f p.>.a 0.k.3X4Xw.0 a e.f.h.",
"i.f f 2XiX0.0 q t t.yXa.u.    :XDXNXmXlXhXjXlXjXjXBX.Xv.Z.c..XCXxXcXxXxXlXjXmXmXDX7X            y y.yXa.u.k.3X;.a f.k.a.",
"6.t <Xh.s.yXf.a -.1Xp.t.k.    ,XNXlXkXjXjXjXhXlXjXzXfXOX|.|..X6X5X5X5XdXhXlXlXlXbX8X            ;.1Xp.t.k.0.j q ;.1Xa.h.",
"y f.tXi.r.q.r.<.&.&.:.g     o ,XAXcXcXcXcXcXcXcXcXcXcXcXxXCX Xc.A.F.Z.v.6XcXcXcXjXjXNXNXNXSXGXk           u s t.6.q *.0.",
"u q.d.h.j 6 g u             k oXdXXXXXXXXXXXXXXXXX.XdXlXjXxX6X|.'.S.OXXXhXjXXXXXkXlXlXjXjXlXmX,Xk         -.q.tXf.y.6.a ",
"6.s <.s t j.uX<X        HXSXZX[.c.Z.S.D.A.A.D.D.D.v.|.CXcXcXcXVX|.c.6XCXBXxXS.Z.jXBXxXcXcXxXhXbXSXSXSXSXDX    w.d.iXf.q ",
"uXt.g 0 p.yX    x.x.k 7XnXjXjXdXXX`.F.).).W._.)._.Q.`.$XoX|.6XcX6X.XgXcXXX|.W.). X.X X X|.XXlXzXjXjXjXjXbX    u 6.r.y f.",
"a.4X2X-.>.u.    HXAXZXSXzXjXhXcXBX'.Z.S.S.).).!.[.&XB.T _ V.|.cXxXBXxXlX).v.).W.S.A.A.D.v.'.xXlXxXxXxXxXzXSXDX    9 0.4X",
"t.p.4Xr.    :XoX}.OXOXOX}.6XcXzXxXfXdXgXdX[./.` ` ` ) T R.dXgXlXlXlXlXlXgX6X!.F._.).S.'.6XgXBX6X}.OXOXOXOX+X|.    s *.p.",
"j :.0.s     GXkXZ.D.D.S.Z.5XcXjXlXcXcXBXxX!.N.! ! E ! Y E.>XxXhXjXjXlXlXcXcX_.F._._.A.OXVXcXcXXXZ.D.D.D.F.F.G.% . l.-.s ",
"t t     W.I.}.'.)._.).).(.'.}.'.^.}.}.OX'._ _ ~ ` D.oX8XjXbXxXcXXXW.'.'.'.}.kXlX_ ` jXfX'.'.}.`.).).)._.).)._./.I.    &.",
"9Xh.    =X{.S.F.)._.).)._./.S.F.F.S.S.F.N.Q ! ! ` C..XVXlXhXhXxXOXZ.F.F.D.F.jXzX~ ( BXgXA.D.S.F._.).).).)._._.*X{.    -.",
"e.1X    JXK.~.~.~._.).).).).).~.~.` Q _ ( ! ~ ! ~ ! J.&X!.W._._._.).).).~.!.] ( ! _ [.^.!.[.!.!.!.!.[.[.!.[.[.K.}     :.",
"y >.    E ^ (./.Y.(.W.)._.)._.(./._ ! ! ~ ` _ ` _ ! ] S.S./.F.F./.W.).)././.~ W ~ _ N./.Y./././.Y./.Y.Y.Y.(.(.I R     i.",
"a q.s.p.    L. .E m.&X~.!.~.~.] ! ( _ E / _.Q.~./.~ ! E m.&X~.~.~.~.~.~.` E ~ ) ( ( ~ ~ ( ~ ~ ~ ( / ( ( / ( |     0 u.s.",
"a w.k.6.    D H [ H.(.T.T.T.Y._ ! ( ~ ` m.)._.~.T.! ( ! H./.T.T.T.T.T.Y._ ! / ) ( ( ~ ~ ( ~ ' ~ ( ( ( ~ ( ' '     q w.u.",
"y a u.h.a t     } E E ! ! ! ! / ( ! _ ).~.D.S.C.M.Y E ' ( ! ! ! ! ! ! ! ~ ) ) / ! ! ! ! ! ! Y Y Y Y Y Y Y  .JX    y u f ",
"f.y 0 >.j q.    J.` H._ ~ ( ( ~ ( [ _ /.!.OX|.|.OX$XX.! ( / ( ( / ~ ( ( ( ( ~ ) H.m.` ` H.P.#X#X#X#X#X#XR.I D     f.6.9.",
"iXj.a t f h.    %XC.%XH.T Q ' ~ _ E ! N.}.VXCXzXxXAXoXT Y ! ! ! ~ _ ( ( ( ( ~ _ ~.&X&X*XD.|.CXCXVXVXcXnXZX    0.0XtX0X2X",
"p.4Xf.u q w.    5X XXXoXE.@XY ~ ~ m.m./._..X6XjXjXcX6XE.@Xn.B.B._ ~ ( ( ( ( ~ ( J.U.P b.G.}.5X5X.XfXxXlXbX    6.4Xh.w.p.",
"p.1X7.6.    ;XdXFXBXxXcXAX@XT ! ~ ~.=X[.(.Z.'.BXcXxXcXFXdX%X&X&Xm.! ( ( ( ( ~ ) [ R # A =X*XG.D.v.XXCXxXxXZXGX    0.h.h.",
"i.f f 2X    G.}.|.6XxXlXxX7XoXX.W I P ).!.)._..X.X.X.X-XR.J U J._ ~ ( ~ ~ ~ ~ ~ ( ~ H K P P S P.Q.}.XX X.X.X.X    j.k.a.",
"6.p     JXK.[.).v..XVXxXlXVXAX#XY x # ).*X).(.A.D.G.G.%XP @ D { ! ~ ! ! W W W W W W L.^ z x # S =X].G.G.G.D.A.=X=X    h.",
"a f.    } ] ~._.).'.OXOX+X+X|.(.N./ R S P _.].{.Y.A I J.U H ` /.T.Y.T.N.oX7X7X7X7XoXQ Q I R ^ K S S S S F I.*XU S     7.",
"s q.    [ H.[._.).).D.D.D.D.F.Q.~.J.[ x n _.].*XP.# N [ ~ { B.~.!.[.!.Q.vXVXbXnXZXjX~ W | ' L.H - x x x z b.=XA z     a ",
"6.s     Z K ' m.{.[.*Xb.V A A I ] ( ! / L V C v D W ! ( m.[.].[._.).).).'.}.jXxXxXlXjX7XW ! [ / ^ ^ ^ / / K S     iX<Xw ",
"uXt.    c V ! ` W.W.~.P z c n R [ ( _ | _ m n n A ] ' R m.~.W./.)._.)._.D.F.gXlXhXhXnX7XW ( _ ' ' ' ' _ | D x     w.y f.",
"f.4Xl.:.    F A Z Z Z M ; H _ ! ! Y.[.F.`.jXzXjXzXnXE.% c c b c b.=X{.[.{.[.!._._._.~.~.[.!.~.U.! ~ ( _ | J Z     9 0.0X",
"q.a.4Xq.    n c c v c v M ^  ._ _ /.~.).'.kXlXkXlXZX,Xb A A m x U [././.I././.).).F.N.N.W.(.~.m.! ( _ ~ ( D ;     f &.p.",
"f 6.7.s u g     % * M K ' ~ ~ /.~.{.{.{.[.~.[.S.+XBXzXzXlXZX..l c c m V c n W.*X*XI.; c ; F ' ( ~ ) | K Z     u.k.k.-.s ",
"p y q e.t.y     . & M H  .( ~ B.).I.U.U.I.N.N.S.}.gXgXgXfXMXE.b A A M c b M N.(.(.N.Z M c F [ ~ _ / ~ F &     k.p.p.i.f ",
"9Xh.r.tXiXp.u d     G ^ L.| | ) ~ b - n x x A *X*X].{.Q.Q.Q.!.~.~.=XP # ) L.' } ~ ~ ~ ) ) ' ' | L.H Z     q h.k.:.q f -.",
"r.l.k.q.r.f.s f.    & C H H L / } J V D D c A P.n.b.n.B.B.N.N.T.T.F.I N J H K R ( ~ _ _ ) ( L H H C &     f a a d t.<X6.",
"y <.s.i.f.l.-.s u.s.    . # n L ' ' ' | _ M v b b x D  .} [ } [ } } L.L.= : - c / ' ) ( | L n # .     u.g.;.q s f g.4Xi.",
"a q.a.a.k.t.s q a 0.    & V K / ' ) ~ ) / V n = - = M L H H H K F F F F - = D K / ) / ( ) / K C &     p.&.;.0X2X;.0 t.d.",
"a w.k.6.u.s ;.3Xd 6.    Z / L.| ' ' | | ) C n < + O $ V b M m M $ O O O ; D ' | ( ( ~ ' ' | L.~ G     d.s r.tXk.h.t w.u.",
"q a i.k.a t j.aXg.0     Z F K J J J J J J V v ; = 3 4 # - = = x 1 3 4 v m V / _ ( ( ) / F J H F Z     0.-.p.k.7.j t u s ",
"f.a 0 >.g q.k.q.h.q.    G M c c ; v n c n Z Z D B +.2 @ O + + + 7 +.4 H M v ( | } '  .^ ; m n M G     y a i.p.0 p y.0.9.",
"iXj.a t f h.p.6.p.4Xq.s       v Z M Z Z v         @.=.d.r 2 1 $ 1 2 & % v Z F J F F K V           4Xq.f f y 0 0.yXtX4X2X",
"p.4Xf.u y q.t.1X3Xu.y :.      ; Z Z M Z m         #.4.rX2.3 2 $ $ $ @ % ; C ; v n m M &           w.u :.qXj.q :.3Xs.w.p.",
"p.1X<.6.e.q f p.6.a 0.k.3X0Xw.            l.<.6.e.    %.7.z.@.2 1 @ 2 7 # %             e.0 f a.6.a 0.h.3X0Xu.q a 0.h.s.",
"u.&.f 2XiX0.0 0 t i.yXp.u.k.3X            f f 2XuX    o.2.rX2.3 4 @ 5 +.+ %             iX0.0 q t i.tXa.i.k.1X;.a f.k.p.",
"6.e l.s.h.iXf.y -.1Xp.t.h.0.-.0 :.k.s.k.6.t 2Xh.k.    8 @.2.#.@.@.@.@.@.    k.k.6.a l.h.h.yXg.p *.3Xi.w.h.0.;.0 ;.1Xs.h.",
"y f.4Xi.w.0.q.>.&.&.:.g s t f t.:.y h 7.a f.wXt.q.    3 8 r @.$.$.%.$.$.    *.0.y f.4Xp.q.3.r.6.&.h >.g a t f t.:.y j 0.",
"u q.k.h.g 9 f u >.f.6.g 9.&.0.tXj.y.:.q s q.k.h.h     1 $ @ 1 3 w %.w 3     6.y s r.k.h.g 9 f s >.f.>.d 9.&.r.yXj.t.j y ",
"6.a 0.s y j.uX2X:.k.4Xk.uXp.d q.s.pXh.s 6.f <.a a     $ $ 1 5 8 @.%.8 3     f.a 6.s <.y y 2XqXj.:.1X2X1XyXp.d w.s.iXh.y ",
"yXt.a 0 y.yX2X0Xt.q h.4X3.s 0 y >.q.a f.aXt.s 0 p.    @ 9 %.$.#.#.%.@.8     y f.aXt.f q p.0X2XyXt.t s.3Xq.u 0 t 6.w.y f.",
"p.4X2X-.6.u.u.g.k.-.;.>.a 6.j.<Xd 6 e.4Xa.3X2X;.6.    4 w %.#.#.@.@.    d 6 0.3Xa.4X2X-.7.u.u.a.h.;.:.>.y 6.j.j.a 6 0.4X",
"u.p.4Xr.0 >.k.a.a.q.y t f.pX4XyXl.f f a.p.p.wX    1.%.%.@.w @.%.8 3     2Xf &.p.t.p.4X0.9 6.k.a.a.q.t t f.pX4XyX<Xf j a.",
"f >.0.i i g p.t.1X0.t ;.h.k.u.u.h.k.:.f j >.9.    $.$.#.=.4.=.8 w 8 9 e     -.&.h :.7.i a g p.t.1X3.y ;.h.k.t.u.a.1X-.f ",
"t t 0 r.t.y t a j s j s t 0.f.h.i.a.i.s a q q     $.$.@.4.sX=.X @.%.eXsX    t.f a q q e.t.u p a j u j s y r.p.h.p.a.t.j ",
"2Xj.q.0XpXp.a d 9.f.0Xj.u 0 h.h.:.t s &.9X    :.*.@.@.1 s 4.2.8.w 1 r =.&.&.    4Xj.t.tXpXi.a d 9.f.0X2Xy 0 h.k.:.t f -.",
"0.2X1Xq.t.f.f i.iX3Xk.9X3Xf s d a y.<X:.<.    rXeX$.8 o 4 o.4.rXe o < 3 z.rX    7.1Xk.q.t.h.s f.uX3Xh.2X3Xj s a a y.9X;.",
"y <.s.w.f.2Xj s w.k.i.u.f.-.t s j g.4X    <.,.@.w 2 1 @ 2 , @.1.@.w 2 O 8 @.9 6     h.t.f.l.-.s u.s.a.u.p.;.t a f g.3Xt.",
"a 6.a.p.p.0.j u a >.0.i.&.j 2Xj.j 0 w.    eX5.: X . . . : : > o.o.O.X o : : O.o.    a.p.p.0.h a s :.0.p.j j 2X<Xf 0 q.p."
};
