/* XPM */
static char *_38398a5e21e4bbba16bc524d52084f0NTTj0FmwkQ24KFyc[] = {
/* columns rows colors chars-per-pixel */
"60 60 107 2 ",
"   c #000000",
".  c #060B06",
"X  c #0B0B0B",
"o  c #091109",
"O  c #7A0000",
"+  c #43261D",
"@  c #522D20",
"#  c #5D3224",
"$  c #5B3B29",
"%  c #633727",
"&  c #683624",
"*  c #663827",
"=  c #6A3826",
"-  c #663B2A",
";  c #6B3C2A",
":  c #713F2B",
">  c #64452E",
",  c #6E412E",
"<  c #72422E",
"1  c #79462E",
"2  c #6E4230",
"3  c #744631",
"4  c #794730",
"5  c #754934",
"6  c #7C4B34",
"7  c #774C38",
"8  c #7D4F38",
"9  c #7E5036",
"0  c #7E5239",
"q  c #8B0000",
"w  c #850904",
"e  c #8E0A05",
"r  c #940000",
"t  c #9E0000",
"y  c #A30000",
"u  c #AB0000",
"i  c #814E35",
"p  c #804F38",
"a  c #855136",
"s  c #84543B",
"d  c #89563C",
"f  c #87583F",
"g  c #8C5A3E",
"h  c #925D3F",
"j  c #97613E",
"k  c #98623F",
"l  c #875940",
"z  c #8C5C42",
"x  c #915E42",
"c  c #B25959",
"v  c #8D6145",
"b  c #8D634A",
"n  c #936244",
"m  c #9A6545",
"M  c #9D6946",
"N  c #946549",
"B  c #996749",
"V  c #906948",
"C  c #9C6B4B",
"Z  c #9C714F",
"A  c #9C6D51",
"S  c #9F7453",
"D  c #A26B46",
"F  c #A26E4A",
"G  c #A5714D",
"H  c #AA744D",
"J  c #AF784F",
"K  c #B0774F",
"L  c #B3794F",
"P  c #A47453",
"I  c #AB7651",
"U  c #AD7953",
"Y  c #AD7E5B",
"T  c #B37C53",
"R  c #B87F56",
"E  c #B17E59",
"W  c #C86565",
"Q  c #D06868",
"!  c #EB7676",
"~  c #488E48",
"^  c #499149",
"/  c #52A552",
"(  c #55AA55",
")  c #58B158",
"_  c #AE805E",
"`  c #B68056",
"'  c #B98257",
"]  c #B4825B",
"[  c #BB855B",
"{  c #BD885D",
"}  c #B68660",
"|  c #B58B64",
" . c #BC8B62",
".. c #BE8F6A",
"X. c #BF916C",
"o. c #C18B5E",
"O. c #C18E63",
"+. c #C49165",
"@. c #C89367",
"#. c #C5946A",
"$. c #C9976B",
"%. c #C7986D",
"&. c #CB9A6E",
"*. c #C39770",
"=. c #004183",
"-. c #FF9D9D",
";. c #E5F8F8",
/* pixels */
"4 C K z D 8 s } 8 v O.L 4 b [ J I < M M 2 D U z C 8 s ] 8 n  .E 4 v { U I < M M , D U z M 8 d ] 8 v  .T 6 v ' K I < C D ",
"< < F T 3 ; Y &.I = a n d G L n 9                                                       3 ; U &.P & a m s G L n 8 ; 1 4 ",
"P < - z 6 m T k U B < < 1 Z F ; 2                                                       8 m E j U B < < 1 Z G ; 3 S v n ",
"%.Y 3 ; i U G z G { m 4 6 , ; x +.                                                      8 J F v H { B 4 4 < ; g  . .{ ' ",
"H { G 1 < B F ] [ M < d X.Y       -.-.-.c c c -.-.-.O O O -.-.-.c c c -.-.-.c c ! -.-.-.      v [ m < d X._ , f { U m F ",
"F ' x z N * 6 H z 5 n E {  .      -.-.-.c c c -.-.-.O O O -.-.-.c c c -.-.-.c c W -.-.-.      M g 1 n E { { B ; 3 N U U ",
"D 6 i ] %.n - - , C +.H M T       -.-.-.c c c -.-.-.O O O -.-.-.c c c -.-.-.c c Q -.-.-.      + # 0 +.H D T { a 3 P R H ",
"z , Y U J +.I 3 a ' G       -.-.-.c c c -.-.-.O O O -.-.-.c c c -.-.-.c c c -.-.-.c c c O O O       G C T n 0 = a ' H H ",
"< P O.F B j B g a i f       -.-.-.c c c -.-.-.O O O -.-.-.c c c -.-.-.c c c -.-.-.c c c O O O       g 7 1 < 4 C l , 8 n ",
"1 m T U 8 % 8 1 d P l       -.-.-.c c c -.-.-.O O O -.-.-.c c c -.-.-.c c c -.-.-.c c c O O O       g 7 v a m O.Y C 0 < ",
"z 3 h 3 , Y #.Y d E {       ^ ^ ^ O O O ( ( ( ( ( ( ( O O O ( ( ( ( ( ( ( ( ( ( ( ( ( ( ( ( (       { ` @.Z 8 m T @.Y : ",
"%.C 4 ; G +._ O.B ; U       ^ ^ ^ O O O ( ( ( ( ( ( ( O O O ( ( ( ( ( ( ( ( ( ( ( ( ( ( ( ( ( .     U [ j 1 * , z m < P ",
"H { ` s z F D H T d s       ^ ^ ^ O O O ( ( ( ( ( ( ( O O O ( ( ( ( ( ( ( ( ( ( ( ( ( ( ( ( ( o     s z 3 z _ _ 3 # n O.",
"C G { m * g T H H n ,       ^ ^ ^ ( ( (         ( ( ( ( ( (         ( ( ( ( ( ( ( ( ( ( ( ( ( .     , , P &.[ +.R 6 8 G ",
"9 f n 4 1 8 G C ' m <       ^ ^ ^ ( ( (         ( ( ( ( ( (         ( ( ( ( ( ( ( ( ( ( ( ( (       < a I T D D H ` a 4 ",
", , = N C < , 3 6 1 8       ^ ^ ^ ( ( (         ( ( ( ( ( (         ( ( ( ( ( ( ( ( ( ( ( ( ( .     8 4 3 n P U G H C 8 ",
"} U M  .%.G 1 7 b P  .      ^ ^ ^ ( ) )         ( ( ( ( ( (         ( ( ( ( ( ( ( ( ( ( ( ( (        .` < ; U T s ; 6 a ",
"B ` ` m Z P 1 G @.{ U       ^ ^ ^ ( ( ( ( ( ( ( ( ( ( ( ( ( ( ( ( ( ( ( ( ( ( ( ( ( ( ( ( ( (       U [ [ 8 5 5 8 Z ] d ",
"3 g K G P ] 9 4 D J F       ^ ^ ~ ( ( ( ( ( ( ( ( ( ( ( ( ( ( ( ( ( ( ( ( ( ( ( ( ( ( ( ( ( (       D D P s , 4 0 I { F ",
"3 m H H T B 8 ; 3 n G       ^ ^ ^ ( ( ( ( ( ( ( ( ( ( ( ( ( ( ( ( ( ( ( ( ( ( ( ( ( ( ( ( ( (       C G a s | ` 8 ; m T ",
"3 M T z M 4 s [ 5 z ]       ^ ^ ^ ( ( ( ( ( ( ( ( / ( ( ( ( ( ( ( ( ( ( ( ( ( ( ( ( ( ( ( ( (       } T 4 N { L U < B D ",
"< 3 D U 4 ; _ &.P ; d       ^ ^ ^ ( ( ( ( ( ( ( ( ( ( ( ( ( ( ( ( ( / ( ( ( ( ( ( ( ( ( ( ( (       d n a G ` n i ; 3 4 ",
"P < ; g 8 m T m T C 2       ^ ^ ^ ( ( ( ( ( ( ( ( ( ( ( ( ( ( ( ( ( ( ( ( ( ( ( ( ( ( ( ( ( (       < < < C G * 2 P n n ",
"%.Y 3 , 8 H G l G { m       ^ ^ ^ ( ( ( ( ( ( ( ( ( ( ( ( ( ( ( ( ( ( ( ( ( ( ( ( ( ( ( ( / (       M 4 8 < ; v .. . .` ",
"F { F 4 : m C ] { M <       ^ ^ ^ ( ( ( ( ( ( (                           ( ( ( ( ( ( ( ( ( (       < a +.Y < s { I m G ",
"G ' x z B ; 6 H z 3 n       ^ ^ ^ ( ( ( ( ( ( (                           ( ( ( ( ( ( ( ( ( (       n E  . .M ; 3 N U U ",
"F 8 6 ] %.n - ; 2 C +.      ^ ^ ^ ( ( ( ( ( ( /                           ( ( ( ( ( ( ( ( ( (       O.H F T [ a 5 P T H ",
"z , E U U #.I 2 a ' G       ^ ^ ~ ( ( ( ( ( ( ( ( ( ( ( ( ( ( ( ( ( ( ( ( ( ( ( ( ( ( ( ( ( (       H C K n 0 ; a R H U ",
"1 P { F m n m g i i d           . ( ( ( ( ( ( ( ( ( ( ( ( ( ( ( ( ( ( ( ( ( ( ( ( ( ( (             z 5 1 < 4 S g ; 8 x ",
"3 m T T 8 % a 1 d P z             ( ( ( ( ( ( ( ( ( ( ( ( ( ( ( ( ( ( ( ( ( ( ( ( ( ( (             l 8 l s m O.E C s 3 ",
"z 4 x 3 , _ *.Y d E o.            ( ( ( ( ( ( ( ( ( ( ( ( ( ( ( ( ( ( ( ( ( ( ( ( ( ( (             { E #.F 6 M K $.E : ",
"#.C 5 - G +.`  .C : U ' m 3 ; < g                                                       G O.E +.C ; T ' m 3 ; < z m < P ",
"P { E d z F D H T d d g < z Y Y 5                                                       x F D H T s d z < z Y Y 3 # v O.",
"m H { m * g T H H n , < S | V Z b                                                       @ 3 v F H m ; < P %.{ +.` 8 8 G ",
"8 z n 1 3 8 G C R m < s U >       ;.;.;.;.;.;.;.;.;.;.( ( ( ;.;.;.;.;.;.;.O O O ;.;.;.;.      0 R n < s U T D D U R a 4 ",
", 3 = N C 3 ; 3 i 1 8 4 < $       ;.;.;.;.;.;.;.;.;.;.( ) ( ;.;.;.;.;.;.;.O O O ;.;.;.;.      $ i 1 8 6 < n G T G G D 8 ",
"} U B O.@.G 1 7 b P  .E 2 +       ;.;.;.;.;.;.;.;.;.;.( ) ( ;.;.;.;.;.;.;.O O O ;.;.;.;.      - b P .._ : ; U T d ; 8 s ",
"N ` R m C P 1 P +.{ U       ;.;.;.X o X ;.;.;.;.O O O ;.;.;.( ) ( ;.;.;.;.;.;.;.;.      ;.;.;.      T ` { p 3 3 4 Z ] f ",
"< g K F P ` 8 4 D J D       ;.;.;.      ;.;.;.;.O O O ;.;.;.( ( ) ;.;.;.;.;.;.;.;.      ;.;.;.      D F P a 3 3 8 I [ G ",
"3 B H H T C 6 ; 3 B G       ;.;.;.      ;.;.;.;.O O O ;.;.;.) ( ( ;.;.;.;.;.;.;.;.      ;.;.;.      F F i s | ` 8 ; m L ",
"3 B U z D 4 s } 3 l {       O O O       ;.;.;.;.;.;.;.;.;.;.;.;.;.;.;.;.;.;.;.;.;.      ) ) )       { T 4 N o.T U 3 M D ",
"< 1 F U 3 , E &.P ; d       O O O       ;.;.;.;.;.;.;.;.;.;.;.;.;.;.;.;.;.;.;.;.;.      ) ) )       s n p H T x i ; 3 6 ",
"P 3 ; g 8 n R n T m ,       O O O       ;.;.;.;.;.;.;.;.;.;.;.;.;.;.;.;.;.;.;.;.;.      ) ) )       2 < 3 F F ; 2 Z v z ",
"%.Y 1 , 6 U F z G { m       ( ( (       ;.;.;.;.;.;.;.;.;.;.;.;.;.;.;.;.;.;.;.;.;.      ) ) )       m 6 8 < ; x O.O. .` ",
"F { G 1 3 B D ] { M <       ( ) (       O O O ;.;.;.;.( ( ( ;.;.;.;.O O O ;.;.;.;.      ) ) )       < d ..Y < s { U m H ",
"G ' h z N * 6 H x 3 n       ( ( (       O O O ;.;.;.;.) ) ( ;.;.;.;.O O O ;.;.;.;.      ) ) )       N T {  .M ; 3 n U H ",
"F 6 6 ] #.n - - ; F +.H D T             O O O ;.;.;.;.( ( ( ;.;.;.;.O O O ;.;.;.;.            ; : F O.G D T { s 3 P E H ",
"z : E T U #.I 3 s ' F C U B             =.=.=.=.( ( ( =.=.=.=.=.=.=.=.=.=.=.=.=.=.            2 s R G C T x a = s R H U ",
": P { F m n m g i i g 8 1 ,             =.=.=.=.( ( ( =.=.=.=.=.=.=.=.=.=.=.=.=.=.            g a 6 g 7 1 < 6 A f < 8 n ",
"3 B L U 0 % 8 1 g P f 7 z a n O.E       =.=.=.=.( ( ( =.=.=.=.=.=.=.=.=.=.=.=.=.=.      8 % 8 # g P f 8 l a B +.U A s < ",
"z 3 h 3 3 Y +.Y g U { E #.F 5 M K       =.=.=.=.=.=.=.=.=.=.=.=.=.=.=.=.=.=.=.=.=.      , _ X.S g E [ T +.G 5 M T @.U < ",
"#.A 4 ; F +.E O.M ; J { m 3 * < g       =.=.=.=.=.=.=.=.=.=.=.=.=.=.u t y =.=.=.=.      G +.` ..C ; U { m 1 * , z m 1 P ",
"G { ] s z D D H K d d g 3 z Y Y 4       =.=.=.=.=.=.=.=.=.=.=.=.=.=.r q q =.=.=.=.      z D D H U a f z < z _ Y 4 # n o.",
"M H o.B - z T H H m , , P %.{ +.Y       =.=.=.=.=.=.=.=.=.=.=.=.=.=.e w w =.=.=.=.      - g R H H m , , P %.{ +.E 6 8 G ",
"8 g n 4 < 8 F F ` n , s U R D D H       =.=.=.=.=.=.=.              ) ) ) ) ) ) )       < 8 G C ' n < a U T F D J E d 4 ",
", , = N C 3 2 3 8 4 9 4 , n P T F       =.=.=.=.=.=.=.              ) ) ) ) ) ) )       C < 2 3 i 1 0 4 3 n G U G H M 6 ",
"} Y C  .%.P < 7 b P  .Y < - U T s       =.=.=.=.=.=.=.              ) ) ) ) ) ) )       *.G < 5 v P  ._ 2 - U T f , 6 a ",
"N ` T m C U 4 G @.[ U { { i 3 3 3                     v U Z V C S $                     C U 4 P @.{ U [ [ 8 4 3 3 Z } g ",
"1 g K D P ] a 3 D T F D P s ; 5 8                     4 D U H D G 7                     P ] a 4 D K G D P a , 4 9 I [ C ",
"3 n K H H N a 4 4 g m G s s } ` 8                     4 4 g m G a 2                     H B 0 4 8 g m G a s } ` 8 ; m T "
};
